# xmcd
#
# Track frame offsets: 
#        187
#        14677
#        42245
#        58625
#        82595
#        102237
#        118975
#        139580
#        158447
#
# Disc length: 2397 seconds
#
# Revision: 2
# Processed by: cddbd v1.5.2PL0 Copyright (c) Steve Scherf et al.
# Submitted via: ExactAudioCopy v0.99pb5
#
DISCID=69095b09
DTITLE=Ray Bryant - Lonesome Traveler [1966] [MVCJ]
DYEAR=1997
DGENRE=Jazz
TTITLE0=Lonesome Traveler
TTITLE1='Round Midnight
TTITLE2=These Boots Are Made for Walkin'
TTITLE3=Willow Weep for Me
TTITLE4=The Blue Scimitar
TTITLE5=Gettin' Loose
TTITLE6=Wild Is the Wind
TTITLE7=Cubano Chant
TTITLE8=Brother This 'n' Ssister That
EXTD=MVCJ-19009, 20 bit K2 remaster, 1997\nCadet-778, 1966
EXTT0=
EXTT1=
EXTT2=
EXTT3=
EXTT4=
EXTT5=
EXTT6=
EXTT7=
EXTT8=
PLAYORDER=
